<svg width="2502" height="315" viewBox="0 0 2502 315" fill="none" xmlns="http://www.w3.org/2000/svg">
<path d="M2.5481e-06 315V-2.14577e-05H120.6C139.5 -2.14577e-05 156.3 3.74998 171 11.25C186 18.45 197.85 28.8 206.55 42.3C215.25 55.8 219.6 72.15 219.6 91.35V97.2C219.6 116.1 215.1 132.45 206.1 146.25C197.4 159.75 185.55 170.1 170.55 177.3C155.55 184.5 138.9 188.1 120.6 188.1H37.8V315H2.5481e-06ZM37.8 153.9H116.55C136.65 153.9 152.55 148.95 164.25 139.05C175.95 128.85 181.8 114.6 181.8 96.3V91.8C181.8 73.5 175.95 59.4 164.25 49.5C152.85 39.3 136.95 34.2 116.55 34.2H37.8V153.9ZM270.264 315V-2.14577e-05H464.214V34.2H308.064V139.5H451.614V173.7H308.064V280.8H466.464V315H270.264ZM523.828 315V-2.14577e-05H651.178C670.678 -2.14577e-05 687.778 3.44998 702.478 10.35C717.478 16.95 729.178 26.55 737.578 39.15C745.978 51.45 750.178 66.3 750.178 83.7V88.65C750.178 109.35 745.228 125.7 735.328 137.7C725.428 149.7 713.728 157.8 700.228 162V168.3C711.028 168.6 719.878 172.2 726.778 179.1C733.978 185.7 737.578 195.75 737.578 209.25V315H700.228V213.75C700.228 204.75 697.678 197.85 692.578 193.05C687.778 188.25 680.428 185.85 670.528 185.85H561.628V315H523.828ZM561.628 151.65H647.578C668.278 151.65 684.178 146.7 695.278 136.8C706.678 126.6 712.378 112.5 712.378 94.5V91.35C712.378 73.35 706.828 59.4 695.728 49.5C684.628 39.3 668.578 34.2 647.578 34.2H561.628V151.65ZM807.715 315V-2.14577e-05H845.515V315H807.715ZM917.578 315V-2.14577e-05H1038.18C1057.08 -2.14577e-05 1073.88 3.74998 1088.58 11.25C1103.58 18.45 1115.43 28.8 1124.13 42.3C1132.83 55.8 1137.18 72.15 1137.18 91.35V97.2C1137.18 116.1 1132.68 132.45 1123.68 146.25C1114.98 159.75 1103.13 170.1 1088.13 177.3C1073.13 184.5 1056.48 188.1 1038.18 188.1H955.378V315H917.578ZM955.378 153.9H1034.13C1054.23 153.9 1070.13 148.95 1081.83 139.05C1093.53 128.85 1099.38 114.6 1099.38 96.3V91.8C1099.38 73.5 1093.53 59.4 1081.83 49.5C1070.43 39.3 1054.53 34.2 1034.13 34.2H955.378V153.9ZM1187.84 315V-2.14577e-05H1225.64V139.95H1373.24V-2.14577e-05H1411.04V315H1373.24V174.15H1225.64V315H1187.84ZM1483.15 315V-2.14577e-05H1677.1V34.2H1520.95V139.5H1664.5V173.7H1520.95V280.8H1679.35V315H1483.15ZM1736.72 315V-2.14577e-05H1864.07C1883.57 -2.14577e-05 1900.67 3.44998 1915.37 10.35C1930.37 16.95 1942.07 26.55 1950.47 39.15C1958.87 51.45 1963.07 66.3 1963.07 83.7V88.65C1963.07 109.35 1958.12 125.7 1948.22 137.7C1938.32 149.7 1926.62 157.8 1913.12 162V168.3C1923.92 168.6 1932.77 172.2 1939.67 179.1C1946.87 185.7 1950.47 195.75 1950.47 209.25V315H1913.12V213.75C1913.12 204.75 1910.57 197.85 1905.47 193.05C1900.67 188.25 1893.32 185.85 1883.42 185.85H1774.52V315H1736.72ZM1774.52 151.65H1860.47C1881.17 151.65 1897.07 146.7 1908.17 136.8C1919.57 126.6 1925.27 112.5 1925.27 94.5V91.35C1925.27 73.35 1919.72 59.4 1908.62 49.5C1897.52 39.3 1881.47 34.2 1860.47 34.2H1774.52V151.65ZM1995.86 315L2093.06 -2.14577e-05H2159.66L2256.86 315H2217.71L2193.41 235.35H2059.31L2035.01 315H1995.86ZM2068.76 201.15H2183.51L2129.51 22.95H2123.21L2068.76 201.15ZM2304.05 315V-2.14577e-05H2341.85V280.8H2501.15V315H2304.05Z" fill="white"/>
</svg>
